HIERARCHY
ROOT Hips
{
  OFFSET 2.26061 22.2878 23.7974
  CHANNELS 6 Xposition Yposition Zposition Zrotation Xrotation Yrotation
  JOINT LeftUpLeg
  {
    OFFSET 8.64259 1.95398 -2.38835
    CHANNELS 3 Zrotation Xrotation Yrotation
    JOINT LeftLeg
    {
      OFFSET 43.7702 0 0
      CHANNELS 3 Zrotation Xrotation Yrotation
      JOINT LeftFoot
      {
        OFFSET 40.6238 0 0
        CHANNELS 3 Zrotation Xrotation Yrotation
        JOINT LeftToeBase
        {
          OFFSET 12.7242 0 0
          CHANNELS 3 Zrotation Xrotation Yrotation
          End Site
          {
            OFFSET 0 0 0
          }
        }
      }
    }
  }
  JOINT RightUpLeg
  {
    OFFSET -8.2249 1.95398 -2.59336
    CHANNELS 3 Zrotation Xrotation Yrotation
    JOINT RightLeg
    {
      OFFSET 43.5653 0 0
      CHANNELS 3 Zrotation Xrotation Yrotation
      JOINT RightFoot
      {
        OFFSET 40.6238 0 0
        CHANNELS 3 Zrotation Xrotation Yrotation
        JOINT RightToeBase
        {
          OFFSET 12.7242 0 0
          CHANNELS 3 Zrotation Xrotation Yrotation
          End Site
          {
            OFFSET 0 0 0
          }
        }
      }
    }
  }
  JOINT Spine
  {
    OFFSET 0.165834 0.87714 6.61349
    CHANNELS 3 Zrotation Xrotation Yrotation
    JOINT Spine1
    {
      OFFSET 7.38963 1.71661e-005 0
      CHANNELS 3 Zrotation Xrotation Yrotation
      JOINT Spine2
      {
        OFFSET 11.9445 1.14441e-005 0
        CHANNELS 3 Zrotation Xrotation Yrotation
        JOINT Spine3
        {
          OFFSET 14.7254 4.19617e-005 0
          CHANNELS 3 Zrotation Xrotation Yrotation
          JOINT Spine4
          {
            OFFSET 10.9679 0 0
            CHANNELS 3 Zrotation Xrotation Yrotation
            JOINT RightShoulder
            {
              OFFSET 2.46616 -1.6653 3.69651
              CHANNELS 3 Zrotation Xrotation Yrotation
              JOINT RightArm
              {
                OFFSET 13.0012 0 0
                CHANNELS 3 Zrotation Xrotation Yrotation
                JOINT RightForeArm
                {
                  OFFSET 28.7848 1.52588e-005 0
                  CHANNELS 3 Zrotation Xrotation Yrotation
                  JOINT RightHand
                  {
                    OFFSET 26.5688 1.52588e-005 0
                    CHANNELS 3 Zrotation Xrotation Yrotation
                    End Site
                    {
                      OFFSET 0 0 0
                    }
                  }
                }
              }
            }
            JOINT LeftShoulder
            {
              OFFSET 2.38034 -1.29275 -3.7523
              CHANNELS 3 Zrotation Xrotation Yrotation
              JOINT LeftArm
              {
                OFFSET 16.3182 6.10351e-005 0
                CHANNELS 3 Zrotation Xrotation Yrotation
                JOINT LeftForeArm
                {
                  OFFSET 27.0901 0 0
                  CHANNELS 3 Zrotation Xrotation Yrotation
                  JOINT LeftHand
                  {
                    OFFSET 24.5451 1.52588e-005 0
                    CHANNELS 3 Zrotation Xrotation Yrotation
                    End Site
                    {
                      OFFSET 0 0 0
                    }
                  }
                }
              }
            }
            JOINT Neck
            {
              OFFSET 5.0226 -0.0266342 0
              CHANNELS 3 Zrotation Xrotation Yrotation
              JOINT Head
              {
                OFFSET 6.69363 2.86102e-005 0
                CHANNELS 3 Zrotation Xrotation Yrotation
                End Site
                {
                  OFFSET 0 0 0
                }
              }
            }
          }
        }
      }
    }
  }
}
MOTION
Frames:	14
Frame Time:	0.0416667
31.0818 83.7973 -20.519 75.923 -22.09 83.5658 -164.835 57.0993 93.9823 -64.5562 5.68755 -2.05024 63.8862 6.23659 7.63232 44.0363 13.3512 11.5176 -171.556 35.2219 72.5617 -51.7286 -5.86582 -13.1971 74.4594 -9.40175 -4.42622 53.7414 -0.0516515 -8.43003 -0.0155157 9.19871 -90.5227 8.47416 -0.261775 -1.01705 -3.19715 -0.306276 -1.00455 -25.7291 0.055948 -1.04871 -5.71645 0.0559695 -1.0487 91.7553 -45.5594 -99.063 17.5278 -1.46792 2.41762 -1.52126 -5.18775 -68.6631 -25.3374 -0.413904 -3.26393 -111.502 -53.8571 49.7173 -18.4842 15.257 14.9204 -0.0483176 4.4788 -38.0395 14.259 0.985821 2.96523 8.09186 25.3843 0.871228 6.45136 26.9666 27.4518 
32.9949 83.427 -20.7948 77.0875 -18.8773 84.8078 -162.341 58.6425 93.4037 -65.3316 1.90022 -2.48117 65.2237 6.77726 6.61234 41.3359 10.9962 13.7825 -174.377 31.8335 72.8131 -50.7479 -5.08655 -12.8781 75.8811 -10.0513 -4.59609 54.5637 -0.290109 -9.77174 0.122743 9.10885 -90.2559 8.6562 0.131484 -0.514843 -3.01486 0.108712 -0.520132 -25.5494 0.28014 -0.451522 -5.53675 0.280127 -0.451517 91.9258 -46.0041 -98.6898 19.9179 -4.55802 1.37761 -6.87116 -5.64056 -78.3768 -22.262 -0.602139 -1.9511 -107.821 -52.7645 54.1591 -24.2429 18.2024 20.0248 0.706221 5.93061 -40.77 13.0012 0.946756 3.30392 10.4086 23.8173 -1.96733 6.11465 25.7895 26.4261 
35.8494 83.6463 -21.6041 78.0611 -14.5224 87.2869 -159.048 60.5163 92.6007 -67.1481 -0.882838 -3.11012 64.5272 4.97241 4.38399 40.4292 10.1539 14.5318 -178.719 26.3913 74.015 -46.4273 -4.24543 -11.9913 75.4558 -10.1336 -4.65343 56.5488 -0.284649 -9.33495 0.283204 8.97355 -90.1706 8.92754 0.48858 -0.371703 -2.74338 0.471757 -0.392853 -25.2791 0.577727 -0.207671 -5.26646 0.577712 -0.207678 93.2278 -46.3358 -96.5217 22.5099 -8.45897 0.858259 -13.8638 -5.17247 -87.4291 -23.6947 -0.2833 -3.43521 -103.55 -50.9255 59.2918 -31.2787 19.0525 26.8388 1.52707 4.71661 -46.9436 14.0757 0.755458 1.47193 13.6875 22.2662 -4.13044 4.41519 24.3131 25.0703 
40.1088 84.41 -23.3374 77.761 -9.51434 89.6423 -154.237 61.2839 89.5871 -68.6524 -0.589032 -3.9803 63.7777 4.27105 3.82668 39.3123 9.0732 15.2117 175.962 19.7719 74.5176 -38.9727 -6.10035 -10.9738 72.17 -8.25439 -4.02074 58.3675 -0.55326 -10.3908 0.487917 8.59004 -90.1579 9.69539 0.901371 -0.382478 -1.9753 0.883664 -0.421782 -24.5129 0.974644 -0.0938739 -4.50029 0.974648 -0.0938769 94.4574 -46.2373 -94.5487 24.6612 -12.4344 2.68471 -16.3258 -1.92683 -94.5399 -23.8423 -0.305236 -3.28528 -101.706 -49.8924 61.5047 -37.0281 19.115 34.7661 0.873198 2.01753 -53.4713 15.0142 0.650688 0.477373 12.5179 19.7019 -5.16691 5.4737 22.1464 23.396 
45.1813 85.8494 -26.1483 77.5233 -5.59583 93.1257 -151.587 59.9567 88.9091 -68.611 3.05117 -4.87038 61.6789 3.13083 6.14986 41.3322 11.0557 14.4486 171.396 12.3224 75.2252 -29.6116 -9.06771 -9.25183 62.7015 -3.8428 -2.093 59.2018 -1.02427 -12.5474 0.741473 8.19943 -90.2168 10.4787 1.37754 -0.553028 -1.19164 1.35184 -0.613139 -23.7325 1.48004 -0.113377 -3.7199 1.48003 -0.113381 95.364 -46.0905 -93.1024 26.582 -14.7004 5.09686 -20.6828 1.22622 -99.2064 -22.1791 -0.598819 -1.69312 -99.8859 -48.6659 63.676 -41.6925 17.0598 40.46 0.455327 0.588087 -56.9081 16.8488 0.58749 -0.370929 10.5366 17.0597 -5.96445 6.67609 19.6957 20.6821 
50.2898 87.4248 -30.0051 78.8255 -3.02767 96.8014 -152.755 55.1014 91.735 -66.7368 7.16876 -5.73652 59.822 1.65572 5.24976 42.6052 12.4453 15.461 169.207 5.00307 75.7723 -21.182 -6.4846 -7.64963 49.0295 1.18085 1.37773 56.4796 -0.62267 -11.2339 1.01228 8.17913 -90.2895 10.5225 1.88344 -0.743394 -1.14733 1.84888 -0.825598 -23.6933 2.01975 -0.142769 -3.68064 2.01972 -0.142787 95.7097 -45.637 -92.6026 27.4336 -16.1499 6.84238 -21.5532 0.777231 -99.2999 -17.4435 -0.689819 -0.638591 -99.8142 -47.8616 63.4767 -43.6359 12.2397 41.8551 -1.13361 -1.28676 -56.8774 19.9588 0.527792 -1.23805 10.9061 14.7406 -5.90488 7.97085 17.2822 16.7736 
55.5263 88.422 -34.3768 76.2933 0.872026 99.7698 -154.271 51.1686 90.8605 -63.5994 8.76293 -6.62555 63.147 5.18808 7.39451 44.3761 13.3573 9.22686 170.458 2.03594 77.7633 -18.1981 -0.414479 -7.5333 43.0067 2.89395 3.07069 37.7215 0.269944 -11.8026 1.05514 7.93907 -90.2553 11.0035 1.98226 -0.698889 -0.666189 1.94957 -0.785482 -23.2135 2.10062 -0.0705767 -3.20083 2.10063 -0.070569 95.6172 -44.9651 -92.8497 27.7605 -17.2341 8.48489 -21.0096 -0.481716 -97.401 -20.9944 -0.592683 -1.61237 -100.415 -48.5744 62.8645 -41.7652 9.84898 40.101 -4.0372 -3.7465 -56.699 21.913 0.893093 0.170108 14.1649 12.4408 -7.40545 6.4281 15.0866 14.2592 
60.3498 88.6051 -38.2343 73.3083 4.73264 102.103 -156.876 47.9276 90.0542 -61.2322 8.81445 -6.86214 68.4093 10.2177 9.8238 44.0529 12.9926 8.69758 173.574 3.89916 80.8937 -26.1203 4.54033 -7.20473 47.6588 0.662246 1.02299 27.6841 0.702437 -10.0608 0.984599 7.70367 -90.0437 11.4699 1.93858 -0.284047 -0.199633 1.92422 -0.36913 -22.7462 1.93431 0.311938 -2.73359 1.93429 0.311933 95.2045 -45.6394 -93.4285 28.0921 -16.6003 10.6766 -19.794 -4.47286 -91.7912 -18.8235 -0.661059 -0.991659 -101.905 -51.3799 61.7971 -35.7886 8.51405 36.9314 -4.67058 -4.5199 -56.7686 25.1468 1.31966 1.41783 15.3329 10.3368 -7.94897 7.52554 12.9875 10.4374 
64.1249 88.2198 -41.5025 72.0145 9.81015 103.961 -159.557 45.9085 89.2597 -61.2286 12.601 -6.08394 67.215 10.2716 14.7603 47.0411 15.5043 7.65114 177.042 8.58873 84.6915 -41.4492 4.12147 -6.81333 49.0724 0.00198862 0.386758 30.7083 0.534816 -9.36557 0.742075 7.80731 -89.8141 11.2587 1.56344 0.215051 -0.411321 1.57139 0.146009 -22.9529 1.4265 0.675075 -2.94025 1.4265 0.675073 94.5771 -46.8731 -94.2536 28.2494 -15.818 12.8427 -17.1198 -8.28485 -83.2246 -17.2787 -0.642418 -0.91574 -104.267 -54.1339 59.5907 -28.3986 7.28936 32.8627 -4.73403 -4.64205 -59.0111 30.5756 1.55832 1.18838 15.7166 8.61385 -8.26501 10.1916 11.3444 7.88638 
67.6321 87.9903 -44.6021 71.3504 16.3999 104.574 -162.87 43.0931 88.0159 -62.7493 12.3316 -4.41246 68.175 10.058 9.90861 47.0619 15.7151 8.76375 178.71 16.1376 87.8511 -58.9417 0.630345 -5.46202 46.8915 1.03104 1.18013 33.8009 0.391858 -6.885 0.3248 8.18621 -89.4862 10.497 0.882871 0.942416 -1.17397 0.923496 0.902639 -23.7075 0.558816 1.16415 -3.69489 0.558853 1.16417 94.702 -49.1742 -93.7042 26.9146 -17.0673 13.5342 -11.914 -13.749 -73.074 -17.2067 -0.588329 -1.25455 -105.206 -54.9765 58.6482 -21.176 5.11059 26.1242 -3.90715 -3.97908 -61.7755 35.3859 1.76804 1.06131 17.6778 6.7059 -11.1046 12.0653 10.5568 8.23586 
71.306 87.2735 -47.8458 71.3517 22.1927 104.184 -165.453 38.1253 86.6026 -62.1291 15.5217 -3.82429 67.7367 10.764 12.6869 49.8701 18.0569 7.93006 179.226 25.1202 89.6798 -74.375 -2.54488 -3.83684 47.5425 0.900871 0.932283 39.2248 0.298044 -7.57193 0.0148515 8.56731 -89.2674 9.73443 0.36118 1.42381 -1.93723 0.42352 1.40654 -24.4661 -0.0833582 1.46654 -4.45346 -0.0833669 1.46653 93.7611 -50.2094 -95.0032 28.661 -15.3269 19.0985 -10.4774 -16.0062 -66.0506 -15.3937 -0.81912 0.616616 -106.108 -54.567 57.2616 -16.1345 2.20951 19.1204 -0.0574472 -1.89356 -68.2828 38.2774 2.48394 2.59062 16.263 5.71018 -9.61104 15.9651 8.98032 5.95275 
75.1668 86.8328 -51.9595 68.9341 26.8182 106.202 -167.849 33.6135 86.1316 -59.2974 16.6343 -3.05972 70.268 13.8631 12.9082 49.3828 17.7435 8.50417 177.406 36.9061 91.8467 -84.0939 -1.44322 -2.26671 48.4979 0.353879 0.458348 42.4281 0.149129 -9.7471 -0.302405 8.55509 -89.3088 9.76383 -0.289633 1.39585 -1.90784 -0.227946 1.40724 -24.4383 -0.695726 1.24431 -4.42564 -0.69573 1.2443 93.6365 -51.2989 -95.0177 28.8256 -16.1369 24.993 -9.33591 -20.5101 -59.8102 -13.2116 -0.813294 1.0926 -104.546 -53.1687 58.8182 -13.5354 1.00774 11.8316 2.79912 -1.90112 -76.9098 40.6394 2.32916 1.75733 15.4258 5.03226 -9.20063 16.8902 7.99084 4.75131 
79.4052 86.8355 -56.5707 67.1386 32.2519 109.891 -170.36 27.821 88.1941 -55.5049 19.5136 -1.74004 70.8149 15.1088 13.5665 50.7572 18.573 6.75438 173.436 46.7854 96.116 -88.4599 1.41077 -1.14385 51.9329 -1.0177 -0.606585 40.2979 0.188812 -10.7928 -0.743651 8.52954 -89.6681 9.82038 -1.33182 0.763955 -1.85015 -1.29693 0.82183 -24.3903 -1.49983 0.328303 -4.37766 -1.49986 0.328288 93.4172 -52.1402 -95.2126 28.7319 -16.6413 32.7104 -10.3032 -24.6928 -57.0579 -10.7465 -0.703258 0.605302 -101.737 -50.978 61.8829 -14.1812 -1.38796 6.96075 9.99245 0.142773 -89.8011 39.4599 2.86869 3.37599 15.4366 4.80373 -9.12192 15.5269 7.55127 3.92063 
84.0762 87.5957 -61.6622 66.9434 36.0495 111.574 -171.764 20.6865 90.3801 -49.778 23.1183 -0.786037 65.37 9.17329 10.2528 58.2073 24.5108 5.23439 170.04 53.485 99.2404 -86.9235 4.37594 -0.371169 56.4069 -1.98672 -1.2191 37.4893 0.318253 -9.93907 -1.12986 8.48361 -89.9332 9.91096 -2.22155 0.312954 -1.75814 -2.20562 0.410458 -24.3083 -2.21284 -0.369523 -4.29569 -2.21284 -0.369523 92.9647 -52.9669 -95.7535 28.5245 -16.8086 42.2533 -12.6303 -25.4525 -59.2015 -8.16713 -0.633444 0.372868 -98.5201 -48.6282 65.6696 -16.1254 -1.72692 4.66306 11.6029 -3.36519 -100.606 38.5841 1.94827 1.08573 14.8691 5.50618 -9.72706 14.0212 8.48014 5.16695 
